<svg width="265" height="40" viewBox="0 0 265 40" fill="none" xmlns="http://www.w3.org/2000/svg">
<path d="M18.5957 13.3835V20.8123H16.0852C11.5767 20.8123 8.86139 22.8104 8.86139 27.8824V39H0.971512V13.4347H8.40029L8.81016 17.226C9.88605 14.7156 12.1403 13.0249 15.5729 13.0249C16.4951 13.0249 17.5198 13.1274 18.5957 13.3835ZM30.9032 39.666C23.167 39.666 17.6338 34.0304 17.6338 26.1405C17.6338 18.1482 23.0133 12.5638 30.7495 12.5638C38.793 12.5638 43.8139 17.8408 43.8139 26.1918V28.1898L25.2163 28.2923C25.6774 31.6737 27.573 33.2619 31.0569 33.2619C34.0284 33.2619 36.1289 32.186 36.6925 30.3416H43.9163C42.9942 36.0285 37.9221 39.666 30.9032 39.666ZM30.8007 18.9679C27.6755 18.9679 25.9336 20.3512 25.3188 23.4252H35.9752C35.9752 20.7098 33.9772 18.9679 30.8007 18.9679ZM53.1543 39.666C47.7236 39.666 44.3422 36.4896 44.3422 31.4688C44.3422 26.7553 47.6724 23.835 53.8203 23.3739L60.9929 22.8104V22.4005C60.9929 19.8901 59.4559 18.558 56.6381 18.558C53.308 18.558 51.5148 19.8389 51.5148 22.1444H44.957C44.957 16.355 49.7217 12.5638 57.048 12.5638C64.4768 12.5638 68.6779 16.7137 68.6779 24.04V39H61.7102L61.1979 35.6186C60.3781 37.9753 56.9968 39.666 53.1543 39.666ZM55.9209 33.8255C58.9436 33.8255 61.0442 32.3397 61.0442 29.4194V28.0361L57.048 28.3948C53.6154 28.7022 52.3858 29.4707 52.3858 31.1101C52.3858 32.9545 53.5129 33.8255 55.9209 33.8255ZM82.2778 39.666C74.9003 39.666 70.1356 34.4403 70.1356 26.3455C70.1356 18.1994 75.0027 12.5638 82.7902 12.5638C85.9666 12.5638 88.9893 13.8446 90.4751 15.7402V0.370342H98.365V39H90.9362L90.5263 35.7211C89.143 38.0778 85.9666 39.666 82.2778 39.666ZM84.1734 32.4422C87.8622 32.4422 90.4239 29.8805 90.4239 26.0381C90.4239 22.1956 87.8622 19.6339 84.1734 19.6339C80.4334 19.6339 78.0767 22.2468 78.0767 26.0381C78.0767 29.8293 80.4334 32.4422 84.1734 32.4422ZM109.362 39H101.472V13.3835H108.85L109.362 16.0476C110.643 14.2545 113.153 12.5638 116.842 12.5638C120.685 12.5638 123.144 14.3569 124.629 17.0723C125.962 14.3569 128.984 12.5638 132.673 12.5638C139.282 12.5638 142.561 16.4063 142.561 22.2468V39H134.671V24.4498C134.671 21.2222 132.98 19.6852 130.47 19.6852C128.216 19.6852 125.962 20.9148 125.962 25.2696V39H118.072V24.4498C118.072 21.2734 116.432 19.7364 113.922 19.7364C111.668 19.7364 109.362 20.966 109.362 25.2696V39ZM144.001 26.1405C144.001 18.0457 149.944 12.615 158.141 12.615C166.287 12.615 172.231 18.0457 172.231 26.1405C172.231 34.2353 166.287 39.6148 158.141 39.6148C149.944 39.6148 144.001 34.2353 144.001 26.1405ZM151.942 26.0893C151.942 29.983 154.453 32.5446 158.141 32.5446C161.779 32.5446 164.289 29.983 164.289 26.0893C164.289 22.2468 161.779 19.6852 158.141 19.6852C154.453 19.6852 151.942 22.2468 151.942 26.0893ZM191.611 13.3835V20.8123H189.101C184.592 20.8123 181.877 22.8104 181.877 27.8824V39H173.987V13.4347H181.416L181.825 17.226C182.901 14.7156 185.156 13.0249 188.588 13.0249C189.51 13.0249 190.535 13.1274 191.611 13.3835ZM203.919 39.666C196.182 39.666 190.649 34.0304 190.649 26.1405C190.649 18.1482 196.029 12.5638 203.765 12.5638C211.808 12.5638 216.829 17.8408 216.829 26.1918V28.1898L198.232 28.2923C198.693 31.6737 200.588 33.2619 204.072 33.2619C207.044 33.2619 209.144 32.186 209.708 30.3416H216.932C216.009 36.0285 210.937 39.666 203.919 39.666ZM203.816 18.9679C200.691 18.9679 198.949 20.3512 198.334 23.4252H208.991C208.991 20.7098 206.992 18.9679 203.816 18.9679ZM222.051 39.666C219.438 39.666 217.338 37.5655 217.338 35.0551C217.338 32.4934 219.438 30.3929 222.051 30.3929C224.561 30.3929 226.764 32.4934 226.764 35.0551C226.764 37.5655 224.561 39.666 222.051 39.666ZM237.311 39.666C231.88 39.666 228.499 36.4896 228.499 31.4688C228.499 26.7553 231.829 23.835 237.977 23.3739L245.149 22.8104V22.4005C245.149 19.8901 243.612 18.558 240.795 18.558C237.464 18.558 235.671 19.8389 235.671 22.1444H229.114C229.114 16.355 233.878 12.5638 241.205 12.5638C248.633 12.5638 252.834 16.7137 252.834 24.04V39H245.867L245.354 35.6186C244.535 37.9753 241.153 39.666 237.311 39.666ZM240.077 33.8255C243.1 33.8255 245.201 32.3397 245.201 29.4194V28.0361L241.205 28.3948C237.772 28.7022 236.542 29.4707 236.542 31.1101C236.542 32.9545 237.669 33.8255 240.077 33.8255ZM259.569 9.38734C257.059 9.38734 255.061 7.38926 255.061 4.87884C255.061 2.36843 257.059 0.421574 259.569 0.421574C262.028 0.421574 264.026 2.36843 264.026 4.87884C264.026 7.38926 262.028 9.38734 259.569 9.38734ZM255.675 39V13.3835H263.565V39H255.675Z" fill="url(#paint0_linear_164_9731)"/>
<defs>
<linearGradient id="paint0_linear_164_9731" x1="261" y1="-11" x2="-2" y2="-11" gradientUnits="userSpaceOnUse">
<stop stop-color="#797979"/>
<stop offset="1" stop-color="white"/>
<stop offset="1" stop-color="#B9B5B5"/>
</linearGradient>
</defs>
</svg>
