<svg width="10269" height="1534" viewBox="0 0 10269 1534" fill="none" xmlns="http://www.w3.org/2000/svg">
<path d="M688 508V798H590C414 798 308 876 308 1074V1508H4.11272e-06V510H290L306 658C348 560 436 494 570 494C606 494 646 498 688 508ZM1168.45 1534C866.453 1534 650.453 1314 650.453 1006C650.453 694 860.453 476 1162.45 476C1476.45 476 1672.45 682 1672.45 1008V1086L946.453 1090C964.453 1222 1038.45 1284 1174.45 1284C1290.45 1284 1372.45 1242 1394.45 1170H1676.45C1640.45 1392 1442.45 1534 1168.45 1534ZM1164.45 726C1042.45 726 974.453 780 950.453 900H1366.45C1366.45 794 1288.45 726 1164.45 726ZM2037.08 1534C1825.08 1534 1693.08 1410 1693.08 1214C1693.08 1030 1823.08 916 2063.08 898L2343.08 876V860C2343.08 762 2283.08 710 2173.08 710C2043.08 710 1973.08 760 1973.08 850H1717.08C1717.08 624 1903.08 476 2189.08 476C2479.08 476 2643.08 638 2643.08 924V1508H2371.08L2351.08 1376C2319.08 1468 2187.08 1534 2037.08 1534ZM2145.08 1306C2263.08 1306 2345.08 1248 2345.08 1134V1080L2189.08 1094C2055.08 1106 2007.08 1136 2007.08 1200C2007.08 1272 2051.08 1306 2145.08 1306ZM3173.98 1534C2885.98 1534 2699.98 1330 2699.98 1014C2699.98 696 2889.98 476 3193.98 476C3317.98 476 3435.98 526 3493.98 600V-1.62125e-05H3801.98V1508H3511.98L3495.98 1380C3441.98 1472 3317.98 1534 3173.98 1534ZM3247.98 1252C3391.98 1252 3491.98 1152 3491.98 1002C3491.98 852 3391.98 752 3247.98 752C3101.98 752 3009.98 854 3009.98 1002C3009.98 1150 3101.98 1252 3247.98 1252ZM4231.28 1508H3923.28V508H4211.28L4231.28 612C4281.28 542 4379.28 476 4523.28 476C4673.28 476 4769.28 546 4827.28 652C4879.28 546 4997.28 476 5141.28 476C5399.28 476 5527.28 626 5527.28 854V1508H5219.28V940C5219.28 814 5153.28 754 5055.28 754C4967.28 754 4879.28 802 4879.28 972V1508H4571.28V940C4571.28 816 4507.28 756 4409.28 756C4321.28 756 4231.28 804 4231.28 972V1508ZM5583.5 1006C5583.5 690 5815.5 478 6135.5 478C6453.5 478 6685.5 690 6685.5 1006C6685.5 1322 6453.5 1532 6135.5 1532C5815.5 1532 5583.5 1322 5583.5 1006ZM5893.5 1004C5893.5 1156 5991.5 1256 6135.5 1256C6277.5 1256 6375.5 1156 6375.5 1004C6375.5 854 6277.5 754 6135.5 754C5991.5 754 5893.5 854 5893.5 1004ZM7442.06 508V798H7344.06C7168.06 798 7062.06 876 7062.06 1074V1508H6754.06V510H7044.06L7060.06 658C7102.06 560 7190.06 494 7324.06 494C7360.06 494 7400.06 498 7442.06 508ZM7922.52 1534C7620.52 1534 7404.52 1314 7404.52 1006C7404.52 694 7614.52 476 7916.52 476C8230.52 476 8426.52 682 8426.52 1008V1086L7700.52 1090C7718.52 1222 7792.52 1284 7928.52 1284C8044.52 1284 8126.52 1242 8148.52 1170H8430.52C8394.52 1392 8196.52 1534 7922.52 1534ZM7918.52 726C7796.52 726 7728.52 780 7704.52 900H8120.52C8120.52 794 8042.52 726 7918.52 726ZM8630.36 1534C8528.36 1534 8446.36 1452 8446.36 1354C8446.36 1254 8528.36 1172 8630.36 1172C8728.36 1172 8814.36 1254 8814.36 1354C8814.36 1452 8728.36 1534 8630.36 1534ZM9226.06 1534C9014.06 1534 8882.06 1410 8882.06 1214C8882.06 1030 9012.06 916 9252.06 898L9532.06 876V860C9532.06 762 9472.06 710 9362.06 710C9232.06 710 9162.06 760 9162.06 850H8906.06C8906.06 624 9092.06 476 9378.06 476C9668.06 476 9832.06 638 9832.06 924V1508H9560.06L9540.06 1376C9508.06 1468 9376.06 1534 9226.06 1534ZM9334.06 1306C9452.06 1306 9534.06 1248 9534.06 1134V1080L9378.06 1094C9244.06 1106 9196.06 1136 9196.06 1200C9196.06 1272 9240.06 1306 9334.06 1306ZM10095 352C9996.97 352 9918.97 274 9918.97 176C9918.97 77.9999 9996.97 1.99996 10095 1.99996C10191 1.99996 10269 77.9999 10269 176C10269 274 10191 352 10095 352ZM9942.97 1508V508H10251V1508H9942.97Z" fill="white"/>
</svg>
