<svg width="74" height="16" viewBox="0 0 74 16" fill="none" xmlns="http://www.w3.org/2000/svg">
<path d="M32.8656 12V4.12121H37.7514V5.14453H34.0543V7.5451H37.4013V8.56457H34.0543V12H32.8656ZM40.8194 12.1308C40.4449 12.1308 40.1064 12.0616 39.8038 11.9231C39.5011 11.782 39.2613 11.5781 39.0844 11.3114C38.91 11.0446 38.8228 10.7176 38.8228 10.3304C38.8228 9.99696 38.8869 9.72254 39.0151 9.5071C39.1434 9.29167 39.3165 9.12111 39.5345 8.99544C39.7525 8.86977 39.9961 8.77488 40.2654 8.71076C40.5347 8.64664 40.8091 8.59791 41.0887 8.56457C41.4426 8.52354 41.7299 8.49019 41.9504 8.46455C42.171 8.43634 42.3313 8.39145 42.4313 8.3299C42.5313 8.26835 42.5814 8.16832 42.5814 8.02983V8.0029C42.5814 7.66692 42.4865 7.4066 42.2967 7.22195C42.1094 7.03729 41.8299 6.94496 41.458 6.94496C41.0707 6.94496 40.7655 7.03087 40.5424 7.20271C40.3218 7.37198 40.1692 7.56049 40.0846 7.76823L39.0036 7.52202C39.1318 7.16296 39.319 6.87315 39.5653 6.65258C39.814 6.42945 40.1 6.26787 40.4231 6.16785C40.7463 6.06526 41.0861 6.01397 41.4426 6.01397C41.6786 6.01397 41.9286 6.04218 42.1928 6.0986C42.4595 6.15246 42.7083 6.25249 42.9391 6.39867C43.1725 6.54486 43.3636 6.75389 43.5123 7.02575C43.6611 7.29504 43.7355 7.64512 43.7355 8.07599V12H42.6121V11.1921H42.566C42.4916 11.3409 42.38 11.4871 42.2313 11.6307C42.0825 11.7743 41.8914 11.8936 41.6581 11.9885C41.4247 12.0834 41.1451 12.1308 40.8194 12.1308ZM41.0695 11.2075C41.3875 11.2075 41.6593 11.1447 41.885 11.019C42.1133 10.8933 42.2864 10.7292 42.4044 10.5266C42.5249 10.3214 42.5852 10.1021 42.5852 9.86873V9.10701C42.5442 9.14804 42.4647 9.18651 42.3467 9.22242C42.2313 9.25576 42.0992 9.28525 41.9504 9.3109C41.8017 9.33398 41.6568 9.35578 41.5157 9.3763C41.3747 9.39425 41.2567 9.40964 41.1618 9.42247C40.9387 9.45068 40.7348 9.49813 40.5501 9.56481C40.368 9.63149 40.2218 9.72767 40.1115 9.85334C40.0038 9.97644 39.95 10.1406 39.95 10.3458C39.95 10.6304 40.0551 10.8459 40.2654 10.9921C40.4757 11.1357 40.7437 11.2075 41.0695 11.2075ZM46.4178 8.49148V12H45.2676V6.09091H46.3717V7.05267H46.4448C46.5807 6.73978 46.7936 6.48844 47.0834 6.29865C47.3758 6.10886 47.7438 6.01397 48.1875 6.01397C48.5901 6.01397 48.9428 6.0986 49.2454 6.26787C49.5481 6.43458 49.7827 6.68336 49.9494 7.0142C50.1161 7.34505 50.1995 7.75412 50.1995 8.24142V12H49.0492V8.37991C49.0492 7.95161 48.9377 7.61691 48.7145 7.37583C48.4914 7.13218 48.1849 7.01036 47.7951 7.01036C47.5284 7.01036 47.2911 7.06806 47.0834 7.18348C46.8782 7.29889 46.7153 7.46816 46.5948 7.69129C46.4768 7.91185 46.4178 8.17858 46.4178 8.49148ZM54.5005 6.09091V7.0142H51.2728V6.09091H54.5005ZM52.1384 4.67519H53.2887V10.265C53.2887 10.4881 53.322 10.6561 53.3887 10.7689C53.4554 10.8792 53.5413 10.9549 53.6465 10.9959C53.7542 11.0344 53.8709 11.0536 53.9966 11.0536C54.0889 11.0536 54.1697 11.0472 54.2389 11.0344C54.3082 11.0216 54.362 11.0113 54.4005 11.0036L54.6082 11.9538C54.5416 11.9795 54.4467 12.0051 54.3236 12.0308C54.2004 12.059 54.0466 12.0744 53.8619 12.0769C53.5593 12.0821 53.2772 12.0282 53.0156 11.9154C52.754 11.8025 52.5424 11.6281 52.3808 11.3922C52.2192 11.1562 52.1384 10.86 52.1384 10.5035V4.67519ZM57.4926 12.1308C57.1181 12.1308 56.7796 12.0616 56.4769 11.9231C56.1743 11.782 55.9345 11.5781 55.7575 11.3114C55.5831 11.0446 55.4959 10.7176 55.4959 10.3304C55.4959 9.99696 55.5601 9.72254 55.6883 9.5071C55.8165 9.29167 55.9897 9.12111 56.2077 8.99544C56.4257 8.86977 56.6693 8.77488 56.9386 8.71076C57.2079 8.64664 57.4823 8.59791 57.7619 8.56457C58.1158 8.52354 58.403 8.49019 58.6236 8.46455C58.8442 8.43634 59.0045 8.39145 59.1045 8.3299C59.2045 8.26835 59.2545 8.16832 59.2545 8.02983V8.0029C59.2545 7.66692 59.1596 7.4066 58.9698 7.22195C58.7826 7.03729 58.5031 6.94496 58.1312 6.94496C57.7439 6.94496 57.4387 7.03087 57.2156 7.20271C56.995 7.37198 56.8424 7.56049 56.7578 7.76823L55.6768 7.52202C55.805 7.16296 55.9922 6.87315 56.2384 6.65258C56.4872 6.42945 56.7732 6.26787 57.0963 6.16785C57.4195 6.06526 57.7593 6.01397 58.1158 6.01397C58.3518 6.01397 58.6018 6.04218 58.866 6.0986C59.1327 6.15246 59.3815 6.25249 59.6123 6.39867C59.8457 6.54486 60.0368 6.75389 60.1855 7.02575C60.3343 7.29504 60.4086 7.64512 60.4086 8.07599V12H59.2853V11.1921H59.2391C59.1648 11.3409 59.0532 11.4871 58.9044 11.6307C58.7557 11.7743 58.5646 11.8936 58.3312 11.9885C58.0978 12.0834 57.8183 12.1308 57.4926 12.1308ZM57.7426 11.2075C58.0607 11.2075 58.3325 11.1447 58.5582 11.019C58.7865 10.8933 58.9596 10.7292 59.0776 10.5266C59.1981 10.3214 59.2584 10.1021 59.2584 9.86873V9.10701C59.2173 9.14804 59.1378 9.18651 59.0199 9.22242C58.9044 9.25576 58.7724 9.28525 58.6236 9.3109C58.4749 9.33398 58.33 9.35578 58.1889 9.3763C58.0478 9.39425 57.9299 9.40964 57.835 9.42247C57.6118 9.45068 57.4079 9.49813 57.2233 9.56481C57.0412 9.63149 56.895 9.72767 56.7847 9.85334C56.677 9.97644 56.6231 10.1406 56.6231 10.3458C56.6231 10.6304 56.7283 10.8459 56.9386 10.9921C57.1489 11.1357 57.4169 11.2075 57.7426 11.2075ZM66.3687 7.53356L65.3262 7.71822C65.2826 7.58485 65.2133 7.4579 65.1184 7.33736C65.0261 7.21682 64.9004 7.11807 64.7414 7.04113C64.5824 6.96419 64.3836 6.92572 64.1451 6.92572C63.8194 6.92572 63.5475 6.99882 63.3295 7.145C63.1115 7.28863 63.0025 7.47457 63.0025 7.70283C63.0025 7.90031 63.0756 8.05932 63.2218 8.17986C63.368 8.30041 63.604 8.39915 63.9297 8.47609L64.8684 8.69152C65.4121 8.8172 65.8173 9.01083 66.084 9.27243C66.3508 9.53403 66.4841 9.87386 66.4841 10.2919C66.4841 10.6458 66.3815 10.9613 66.1764 11.2383C65.9737 11.5127 65.6903 11.7281 65.3262 11.8846C64.9645 12.041 64.5452 12.1193 64.0682 12.1193C63.4065 12.1193 62.8666 11.9782 62.4486 11.6961C62.0305 11.4114 61.774 11.0075 61.6791 10.4843L62.7909 10.315C62.8602 10.6048 63.0025 10.8241 63.218 10.9728C63.4334 11.119 63.7142 11.1921 64.0605 11.1921C64.4375 11.1921 64.7388 11.1139 64.9645 10.9574C65.1902 10.7984 65.3031 10.6048 65.3031 10.3765C65.3031 10.1919 65.2338 10.0367 65.0953 9.91104C64.9594 9.78537 64.7504 9.69048 64.4683 9.62636L63.468 9.40708C62.9166 9.28141 62.5088 9.08136 62.2447 8.80694C61.9831 8.53251 61.8523 8.18499 61.8523 7.76438C61.8523 7.41558 61.9497 7.11038 62.1446 6.84878C62.3396 6.58718 62.6088 6.38329 62.9525 6.2371C63.2962 6.08834 63.6899 6.01397 64.1336 6.01397C64.7722 6.01397 65.2749 6.15246 65.6416 6.42945C66.0084 6.70387 66.2507 7.07191 66.3687 7.53356ZM68.4759 14.2159C68.3041 14.2159 68.1477 14.2018 68.0066 14.1736C67.8655 14.1479 67.7604 14.1197 67.6911 14.089L67.9681 13.1464C68.1784 13.2028 68.3657 13.2272 68.5298 13.2195C68.6939 13.2118 68.8388 13.1503 68.9645 13.0349C69.0928 12.9194 69.2056 12.7309 69.3031 12.4693L69.4454 12.0769L67.2834 6.09091H68.5144L70.0109 10.6766H70.0725L71.569 6.09091H72.8039L70.3687 12.7886C70.2558 13.0964 70.1122 13.3567 69.9378 13.5696C69.7634 13.785 69.5557 13.9466 69.3146 14.0543C69.0735 14.1621 68.794 14.2159 68.4759 14.2159Z" fill="#CDCDCD" fill-opacity="0.8"/>
<line x1="28.5" y1="3" x2="28.5" y2="13" stroke="#CDCDCD"/>
<path d="M2.88973 13H0.790586V2.72238H2.88973V8.63815L5.09792 6.18461H7.72866L5.16607 8.8835L7.64687 13H5.22059L3.69394 10.451L2.88973 11.2962V13ZM8.87726 5.1214C8.20936 5.1214 7.67776 4.5898 7.67776 3.92189C7.67776 3.25398 8.20936 2.73602 8.87726 2.73602C9.53154 2.73602 10.0631 3.25398 10.0631 3.92189C10.0631 4.5898 9.53154 5.1214 8.87726 5.1214ZM7.84132 13V6.18461H9.94047V13H7.84132ZM13.628 13.1772C11.6652 13.1772 10.3975 11.7869 10.3975 9.63319C10.3975 7.4659 11.6924 5.96651 13.7643 5.96651C14.6094 5.96651 15.4137 6.30728 15.8089 6.81162V2.72238H17.9081V13H15.9316L15.8226 12.1276C15.4545 12.7546 14.6094 13.1772 13.628 13.1772ZM14.1324 11.2553C15.1138 11.2553 15.7953 10.5737 15.7953 9.55141C15.7953 8.5291 15.1138 7.84756 14.1324 7.84756C13.1373 7.84756 12.5103 8.54273 12.5103 9.55141C12.5103 10.5601 13.1373 11.2553 14.1324 11.2553ZM18.2441 10.8463H20.2342C20.2614 11.3234 20.6158 11.6097 21.2565 11.6097C21.9107 11.6097 22.2106 11.3779 22.2106 11.0235C22.2106 10.8191 22.1016 10.601 21.5972 10.4919L20.3432 10.2193C19.0892 9.9467 18.4758 9.40147 18.4758 8.20196C18.4758 6.78436 19.6889 5.96651 21.3246 5.96651C22.9058 5.96651 24.0099 6.89341 24.0099 8.27012H22.0198C22.0198 7.80667 21.7335 7.49316 21.2292 7.49316C20.7521 7.49316 20.4523 7.73852 20.4523 8.10655C20.4523 8.42005 20.7112 8.59725 21.1883 8.7063L22.456 8.97892C23.5737 9.22427 24.1871 9.74224 24.1871 10.8327C24.1871 12.2912 22.9467 13.1772 21.1747 13.1772C19.3754 13.1772 18.2441 12.223 18.2441 10.8463Z" fill="#CDCDCD"/>
</svg>
