<svg width="187" height="38" viewBox="0 0 187 38" fill="none" xmlns="http://www.w3.org/2000/svg">
<rect y="2" width="109.301" height="32" rx="4" fill="#CDCDCD"/>
<path d="M28.2561 23V12.627H31.761C32.5714 12.627 33.2366 12.7655 33.7566 13.0424C34.2766 13.3159 34.6615 13.6924 34.9114 14.1718C35.1613 14.6513 35.2862 15.1967 35.2862 15.8078C35.2862 16.419 35.1613 16.9609 34.9114 17.4337C34.6615 17.9064 34.2783 18.2778 33.7617 18.5479C33.245 18.8147 32.5849 18.9481 31.7813 18.9481H28.9449V17.8135H31.7408C32.2945 17.8135 32.7402 17.7325 33.0779 17.5704C33.4189 17.4083 33.6654 17.1787 33.8174 16.8816C33.9727 16.5811 34.0504 16.2231 34.0504 15.8078C34.0504 15.3925 33.9727 15.0295 33.8174 14.7189C33.6621 14.4082 33.4139 14.1685 33.0728 13.9996C32.7318 13.8274 32.281 13.7413 31.7205 13.7413H29.5122V23H28.2561ZM33.1387 18.3403L35.6914 23H34.2327L31.7205 18.3403H33.1387ZM40.3954 23.1621C39.6458 23.1621 38.9992 22.9966 38.4556 22.6657C37.9153 22.3314 37.4983 21.8655 37.2045 21.2678C36.9142 20.6668 36.769 19.9678 36.769 19.1709C36.769 18.374 36.9142 17.6717 37.2045 17.0639C37.4983 16.4528 37.9069 15.9766 38.4303 15.6356C38.957 15.2912 39.5715 15.119 40.2739 15.119C40.6791 15.119 41.0792 15.1865 41.4743 15.3216C41.8693 15.4566 42.2289 15.6761 42.5531 15.98C42.8772 16.2805 43.1356 16.679 43.328 17.1753C43.5205 17.6717 43.6167 18.2829 43.6167 19.0088V19.5153H37.6199V18.4821H42.4011C42.4011 18.0431 42.3134 17.6514 42.1378 17.307C41.9656 16.9626 41.7191 16.6908 41.3983 16.4916C41.0809 16.2924 40.7061 16.1928 40.2739 16.1928C39.7978 16.1928 39.3858 16.3109 39.038 16.5473C38.6936 16.7803 38.4286 17.0842 38.2428 17.459C38.0571 17.8338 37.9643 18.2356 37.9643 18.6644V19.3533C37.9643 19.9408 38.0656 20.4388 38.2682 20.8474C38.4741 21.2526 38.7595 21.5616 39.1241 21.7743C39.4888 21.9836 39.9126 22.0883 40.3954 22.0883C40.7095 22.0883 40.9931 22.0444 41.2463 21.9566C41.503 21.8655 41.7241 21.7304 41.9099 21.5514C42.0956 21.3691 42.2391 21.1429 42.3404 20.8727L43.4952 21.1969C43.3736 21.5886 43.1693 21.933 42.8823 22.2301C42.5953 22.5239 42.2408 22.7535 41.8187 22.919C41.3966 23.081 40.9222 23.1621 40.3954 23.1621ZM47.7244 23.1823C47.2314 23.1823 46.784 23.0895 46.3822 22.9038C45.9804 22.7147 45.6613 22.4429 45.4249 22.0883C45.1885 21.7304 45.0704 21.2982 45.0704 20.7917C45.0704 20.346 45.1582 19.9847 45.3337 19.7078C45.5093 19.4275 45.744 19.2081 46.0378 19.0494C46.3315 18.8907 46.6557 18.7725 47.0102 18.6948C47.3681 18.6138 47.7278 18.5496 48.089 18.5024C48.5618 18.4416 48.945 18.396 49.2388 18.3656C49.5359 18.3318 49.752 18.2761 49.8871 18.1985C50.0255 18.1208 50.0948 17.9857 50.0948 17.7933V17.7527C50.0948 17.253 49.958 16.8647 49.6845 16.5878C49.4144 16.3109 49.0041 16.1725 48.4537 16.1725C47.8831 16.1725 47.4357 16.2974 47.1115 16.5473C46.7874 16.7972 46.5594 17.0639 46.4278 17.3476L45.2932 16.9424C45.4958 16.4696 45.7659 16.1016 46.1036 15.8382C46.4446 15.5715 46.8161 15.3857 47.2179 15.2811C47.6231 15.173 48.0215 15.119 48.4132 15.119C48.6631 15.119 48.9501 15.1494 49.2742 15.2102C49.6018 15.2676 49.9175 15.3874 50.2214 15.5698C50.5287 15.7521 50.7836 16.0273 50.9862 16.3953C51.1888 16.7634 51.2901 17.2564 51.2901 17.8743V23H50.0948V21.9465H50.034C49.9529 22.1153 49.8179 22.296 49.6288 22.4884C49.4397 22.6809 49.1881 22.8447 48.8741 22.9797C48.5601 23.1148 48.1768 23.1823 47.7244 23.1823ZM47.9067 22.1086C48.3794 22.1086 48.7779 22.0157 49.102 21.83C49.4296 21.6443 49.6761 21.4046 49.8415 21.1108C50.0103 20.817 50.0948 20.5081 50.0948 20.1839V19.0899C50.0441 19.1507 49.9327 19.2064 49.7605 19.257C49.5916 19.3043 49.3958 19.3465 49.1729 19.3836C48.9535 19.4174 48.739 19.4478 48.5297 19.4748C48.3237 19.4985 48.1566 19.5187 48.0283 19.5356C47.7176 19.5761 47.4272 19.642 47.1571 19.7331C46.8904 19.8209 46.6742 19.9543 46.5088 20.1333C46.3467 20.3088 46.2657 20.5486 46.2657 20.8525C46.2657 21.2678 46.4193 21.5818 46.7266 21.7945C47.0372 22.0039 47.4306 22.1086 47.9067 22.1086ZM56.4094 23.1621C55.7611 23.1621 55.1888 22.9983 54.6924 22.6708C54.1961 22.3399 53.8078 21.8739 53.5275 21.2729C53.2472 20.6684 53.1071 19.9543 53.1071 19.1304C53.1071 18.3133 53.2472 17.6042 53.5275 17.0031C53.8078 16.4021 54.1978 15.9378 54.6975 15.6103C55.1972 15.2828 55.7746 15.119 56.4297 15.119C56.9362 15.119 57.3363 15.2034 57.6301 15.3722C57.9272 15.5377 58.1535 15.7268 58.3088 15.9395C58.4675 16.1489 58.5907 16.3211 58.6785 16.4561H58.7798V12.627H59.9751V23H58.8203V21.8047H58.6785C58.5907 21.9465 58.4658 22.1255 58.3037 22.3416C58.1416 22.5543 57.9103 22.7451 57.6098 22.9139C57.3093 23.0794 56.9092 23.1621 56.4094 23.1621ZM56.5715 22.0883C57.051 22.0883 57.4562 21.9634 57.7871 21.7135C58.118 21.4603 58.3696 21.1108 58.5418 20.6651C58.714 20.216 58.8001 19.6977 58.8001 19.1101C58.8001 18.5294 58.7157 18.0212 58.5468 17.5856C58.378 17.1466 58.1281 16.8056 57.7972 16.5625C57.4663 16.316 57.0578 16.1928 56.5715 16.1928C56.065 16.1928 55.643 16.3228 55.3053 16.5827C54.971 16.8394 54.7194 17.1889 54.5506 17.6312C54.3852 18.0701 54.3024 18.5631 54.3024 19.1101C54.3024 19.6639 54.3869 20.167 54.5557 20.6195C54.7279 21.0686 54.9811 21.4265 55.3154 21.6933C55.6531 21.9566 56.0718 22.0883 56.5715 22.0883ZM67.5371 18.32V23H66.3417V15.2203H67.4965V16.4359H67.5978C67.7802 16.0408 68.0571 15.7234 68.4285 15.4837C68.7999 15.2405 69.2794 15.119 69.8669 15.119C70.3937 15.119 70.8546 15.227 71.2496 15.4431C71.6447 15.6559 71.952 15.98 72.1715 16.4156C72.3909 16.8478 72.5007 17.3948 72.5007 18.0566V23H71.3054V18.1377C71.3054 17.5265 71.1467 17.0504 70.8293 16.7094C70.5119 16.365 70.0763 16.1928 69.5225 16.1928C69.141 16.1928 68.7999 16.2755 68.4994 16.4409C68.2023 16.6064 67.9676 16.8478 67.7954 17.1652C67.6232 17.4826 67.5371 17.8676 67.5371 18.32ZM77.8454 23.1621C77.1431 23.1621 76.5269 22.9949 75.9967 22.6607C75.47 22.3264 75.058 21.8587 74.7609 21.2577C74.4671 20.6566 74.3203 19.9543 74.3203 19.1507C74.3203 18.3403 74.4671 17.6329 74.7609 17.0285C75.058 16.424 75.47 15.9547 75.9967 15.6204C76.5269 15.2861 77.1431 15.119 77.8454 15.119C78.5478 15.119 79.1623 15.2861 79.6891 15.6204C80.2192 15.9547 80.6311 16.424 80.9249 17.0285C81.2221 17.6329 81.3706 18.3403 81.3706 19.1507C81.3706 19.9543 81.2221 20.6566 80.9249 21.2577C80.6311 21.8587 80.2192 22.3264 79.6891 22.6607C79.1623 22.9949 78.5478 23.1621 77.8454 23.1621ZM77.8454 22.0883C78.3789 22.0883 78.8179 21.9516 79.1623 21.6781C79.5067 21.4046 79.7617 21.0449 79.9271 20.5992C80.0926 20.1535 80.1753 19.6707 80.1753 19.1507C80.1753 18.6307 80.0926 18.1461 79.9271 17.697C79.7617 17.2479 79.5067 16.885 79.1623 16.6081C78.8179 16.3312 78.3789 16.1928 77.8454 16.1928C77.3119 16.1928 76.873 16.3312 76.5286 16.6081C76.1841 16.885 75.9292 17.2479 75.7638 17.697C75.5983 18.1461 75.5156 18.6307 75.5156 19.1507C75.5156 19.6707 75.5983 20.1535 75.7638 20.5992C75.9292 21.0449 76.1841 21.4046 76.5286 21.6781C76.873 21.9516 77.3119 22.0883 77.8454 22.0883ZM84.6932 23L82.3228 15.2203H83.5789L85.2605 21.1766H85.3415L87.0028 15.2203H88.2792L89.9202 21.1564H90.0012L91.6828 15.2203H92.9389L90.5685 23H89.3935L87.6916 17.0234H87.5701L85.8683 23H84.6932Z" fill="black"/>
<path d="M121.799 27.7273H123.131L125.446 33.3807H125.531L127.847 27.7273H129.178V35H128.134V29.7372H128.067L125.922 34.9893H125.055L122.911 29.7337H122.843V35H121.799V27.7273ZM131.36 37.0455C131.201 37.0455 131.057 37.0324 130.926 37.0064C130.796 36.9827 130.699 36.9567 130.635 36.9283L130.891 36.0582C131.085 36.1103 131.258 36.1328 131.409 36.1257C131.561 36.1186 131.695 36.0618 131.811 35.9553C131.929 35.8487 132.033 35.6747 132.123 35.4332L132.254 35.071L130.259 29.5455H131.395L132.776 33.7784H132.833L134.215 29.5455H135.355L133.107 35.728C133.003 36.0121 132.87 36.2524 132.709 36.4489C132.548 36.6477 132.356 36.7969 132.134 36.8963C131.911 36.9957 131.653 37.0455 131.36 37.0455ZM139.084 35V27.7273H140.181V34.0554H143.477V35H139.084ZM144.643 35V29.5455H145.705V35H144.643ZM145.18 28.7038C144.995 28.7038 144.836 28.6423 144.704 28.5192C144.574 28.3937 144.509 28.2446 144.509 28.0717C144.509 27.8965 144.574 27.7474 144.704 27.6243C144.836 27.4988 144.995 27.4361 145.18 27.4361C145.364 27.4361 145.522 27.4988 145.652 27.6243C145.785 27.7474 145.851 27.8965 145.851 28.0717C145.851 28.2446 145.785 28.3937 145.652 28.5192C145.522 28.6423 145.364 28.7038 145.18 28.7038ZM151.221 30.8771L150.259 31.0476C150.218 30.9245 150.155 30.8073 150.067 30.696C149.982 30.5848 149.866 30.4936 149.719 30.4226C149.572 30.3516 149.389 30.3161 149.169 30.3161C148.868 30.3161 148.617 30.3835 148.416 30.5185C148.214 30.651 148.114 30.8227 148.114 31.0334C148.114 31.2157 148.181 31.3625 148.316 31.4737C148.451 31.585 148.669 31.6761 148.97 31.7472L149.836 31.946C150.338 32.062 150.712 32.2408 150.958 32.4822C151.204 32.7237 151.328 33.0374 151.328 33.4233C151.328 33.75 151.233 34.0412 151.044 34.2969C150.856 34.5502 150.595 34.7491 150.259 34.8935C149.925 35.0379 149.538 35.1101 149.097 35.1101C148.487 35.1101 147.988 34.9799 147.602 34.7195C147.217 34.4567 146.98 34.0838 146.892 33.6009L147.919 33.4446C147.982 33.7121 148.114 33.9145 148.313 34.0518C148.512 34.1868 148.771 34.2543 149.09 34.2543C149.438 34.2543 149.717 34.1821 149.925 34.0376C150.133 33.8909 150.237 33.7121 150.237 33.5014C150.237 33.331 150.173 33.1877 150.046 33.0717C149.92 32.9557 149.727 32.8681 149.467 32.8089L148.544 32.6065C148.035 32.4905 147.658 32.3059 147.414 32.0526C147.173 31.7992 147.052 31.4785 147.052 31.0902C147.052 30.7682 147.142 30.4865 147.322 30.245C147.502 30.0036 147.75 29.8153 148.068 29.6804C148.385 29.5431 148.748 29.4744 149.158 29.4744C149.747 29.4744 150.211 29.6023 150.55 29.858C150.888 30.1113 151.112 30.451 151.221 30.8771ZM155.041 29.5455V30.3977H152.062V29.5455H155.041ZM152.861 28.2386H153.923V33.3984C153.923 33.6044 153.953 33.7595 154.015 33.8636C154.076 33.9654 154.156 34.0353 154.253 34.0732C154.352 34.1087 154.46 34.1264 154.576 34.1264C154.661 34.1264 154.736 34.1205 154.8 34.1087C154.864 34.0968 154.913 34.0874 154.949 34.0803L155.141 34.9574C155.079 34.9811 154.991 35.0047 154.878 35.0284C154.764 35.0545 154.622 35.0687 154.452 35.071C154.172 35.0758 153.912 35.026 153.67 34.9219C153.429 34.8177 153.234 34.6567 153.085 34.4389C152.935 34.2211 152.861 33.9477 152.861 33.6186V28.2386Z" fill="#CDCDCD"/>
<path d="M138 4.16797V15.8346" stroke="#CDCDCD" stroke-width="1.5" stroke-linecap="round" stroke-linejoin="round"/>
<path d="M132.164 10H143.831" stroke="#CDCDCD" stroke-width="1.5" stroke-linecap="round" stroke-linejoin="round"/>
<path d="M169.896 27.7273V35H168.799V27.7273H169.896ZM172.471 31.7614V35H171.409V29.5455H172.428V30.4332H172.496C172.621 30.1444 172.818 29.9124 173.085 29.7372C173.355 29.562 173.695 29.4744 174.104 29.4744C174.476 29.4744 174.802 29.5526 175.081 29.7088C175.36 29.8627 175.577 30.0923 175.731 30.3977C175.885 30.7031 175.962 31.0807 175.962 31.5305V35H174.9V31.6584C174.9 31.263 174.797 30.9541 174.591 30.7315C174.385 30.5066 174.102 30.3942 173.742 30.3942C173.496 30.3942 173.277 30.4474 173.085 30.554C172.896 30.6605 172.746 30.8168 172.634 31.0227C172.525 31.2263 172.471 31.4725 172.471 31.7614ZM179.982 29.5455V30.3977H176.899V29.5455H179.982ZM177.744 35V28.9134C177.744 28.5724 177.819 28.2895 177.968 28.0646C178.117 27.8374 178.315 27.6681 178.561 27.5568C178.807 27.4432 179.075 27.3864 179.364 27.3864C179.577 27.3864 179.759 27.4041 179.911 27.4396C180.062 27.4728 180.174 27.5036 180.248 27.532L179.999 28.3913C179.95 28.3771 179.886 28.3606 179.808 28.3416C179.729 28.3203 179.635 28.3097 179.523 28.3097C179.265 28.3097 179.081 28.3736 178.969 28.5014C178.861 28.6293 178.806 28.8139 178.806 29.0554V35H177.744ZM183.16 35.1101C182.648 35.1101 182.202 34.9929 181.821 34.7585C181.44 34.5241 181.144 34.1963 180.933 33.7749C180.723 33.3535 180.617 32.861 180.617 32.2976C180.617 31.7318 180.723 31.237 180.933 30.8132C181.144 30.3894 181.44 30.0604 181.821 29.826C182.202 29.5916 182.648 29.4744 183.16 29.4744C183.671 29.4744 184.117 29.5916 184.499 29.826C184.88 30.0604 185.176 30.3894 185.386 30.8132C185.597 31.237 185.702 31.7318 185.702 32.2976C185.702 32.861 185.597 33.3535 185.386 33.7749C185.176 34.1963 184.88 34.5241 184.499 34.7585C184.117 34.9929 183.671 35.1101 183.16 35.1101ZM183.163 34.2188C183.495 34.2188 183.769 34.1312 183.987 33.956C184.205 33.7808 184.366 33.5476 184.47 33.2564C184.577 32.9652 184.63 32.6444 184.63 32.294C184.63 31.946 184.577 31.6264 184.47 31.3352C184.366 31.0417 184.205 30.8061 183.987 30.6286C183.769 30.451 183.495 30.3622 183.163 30.3622C182.83 30.3622 182.553 30.451 182.332 30.6286C182.115 30.8061 181.952 31.0417 181.846 31.3352C181.742 31.6264 181.69 31.946 181.69 32.294C181.69 32.6444 181.742 32.9652 181.846 33.2564C181.952 33.5476 182.115 33.7808 182.332 33.956C182.553 34.1312 182.83 34.2188 183.163 34.2188Z" fill="#CDCDCD"/>
<g clip-path="url(#clip0_193_1732)">
<path d="M176.997 20.3346C181.6 20.3346 185.331 16.6037 185.331 12.0013C185.331 7.39893 181.6 3.66797 176.997 3.66797C172.395 3.66797 168.664 7.39893 168.664 12.0013C168.664 16.6037 172.395 20.3346 176.997 20.3346Z" stroke="#CDCDCD" stroke-width="1.5" stroke-linecap="round" stroke-linejoin="round"/>
<path d="M177 15.3333V12" stroke="#CDCDCD" stroke-width="1.5" stroke-linecap="round" stroke-linejoin="round"/>
<path d="M177 8.66797H177.008" stroke="#CDCDCD" stroke-width="1.5" stroke-linecap="round" stroke-linejoin="round"/>
</g>
<path d="M19.7471 26.0409H10.7954C8.72241 26.0409 8 24.9416 8 23.9365C8 22.9314 8.72241 21.832 10.7954 21.832H19.7471C20.0926 21.832 20.3753 22.1147 20.3753 22.4602C20.3753 22.8057 20.0926 23.0884 19.7471 23.0884H10.7954C10.1044 23.0884 9.25637 23.2454 9.25637 23.9365C9.25637 24.6275 10.1044 24.7845 10.7954 24.7845H19.7471C20.0926 24.7845 20.3753 25.0672 20.3753 25.4127C20.3753 25.7582 20.0926 26.0409 19.7471 26.0409Z" fill="black"/>
<path d="M12.2617 22.4804L9.18359 22.8652H8.79883L8.41406 12.8613L9.56835 11.707H19.5722V22.4804H12.2617Z" fill="black"/>
<path d="M8.69069 23.7836C8.34518 23.7836 8.0625 23.5009 8.0625 23.1554V13.0416C8.0625 11.9109 8.94196 11 10.0413 11H19.7153C20.0608 11 20.3435 11.2827 20.3435 11.6282V22.3388C20.3435 22.6843 20.0608 22.9669 19.7153 22.9669C19.3698 22.9669 19.0872 22.6843 19.0872 22.3388V12.2564H10.0413C9.66437 12.2564 9.31887 12.6333 9.31887 13.0416V23.1554C9.31887 23.5009 9.03619 23.7836 8.69069 23.7836Z" fill="black"/>
<path d="M19.7406 26.2678C18.9868 26.2678 18.5156 25.4197 18.5156 24.1319C18.5156 22.8441 19.0182 21.9961 19.7406 21.9961C20.0861 21.9961 20.3688 22.2788 20.3688 22.6243C20.3688 22.907 20.1803 23.1582 19.929 23.2211C19.8662 23.3467 19.772 23.6608 19.772 24.1319C19.772 24.6031 19.8662 24.9172 19.929 25.0428C20.1803 25.137 20.3688 25.3569 20.3688 25.6396C20.3688 25.9851 20.0861 26.2678 19.7406 26.2678Z" fill="black"/>
<defs>
<clipPath id="clip0_193_1732">
<rect width="20" height="20" fill="white" transform="translate(167 2)"/>
</clipPath>
</defs>
</svg>
